<svg width="19" height="18" viewBox="0 0 19 18" fill="none" xmlns="http://www.w3.org/2000/svg">
<g clip-path="url(#clip0)">
<path fill-rule="evenodd" clip-rule="evenodd" d="M2.07427 1.79999V6.29999H6.57596L6.57867 1.79999H2.07427ZM6.57877 8.09998H2.07435C1.08068 8.09998 0.272583 7.29268 0.272583 6.29998V1.8C0.272583 0.808198 1.08068 0 2.07435 0H6.57877C7.57244 0 8.38054 0.808198 8.38054 1.8V6.29998C8.38054 7.29268 7.57244 8.09998 6.57877 8.09998Z" fill="#757575"/>
<path fill-rule="evenodd" clip-rule="evenodd" d="M11.984 1.79999V6.29999H16.4857L16.4884 1.79999H11.984ZM16.4884 8.09998H11.984C10.9903 8.09998 10.1823 7.29268 10.1823 6.29998V1.8C10.1823 0.808198 10.9903 0 11.984 0H16.4884C17.4821 0 18.2902 0.808198 18.2902 1.8V6.29998C18.2902 7.29268 17.4821 8.09998 16.4884 8.09998Z" fill="#757575"/>
<path fill-rule="evenodd" clip-rule="evenodd" d="M2.07427 11.6999V16.1999H6.57596L6.57867 11.6999H2.07427ZM6.57877 17.9999H2.07435C1.08068 17.9999 0.272583 17.1926 0.272583 16.1999V11.6999C0.272583 10.7081 1.08068 9.8999 2.07435 9.8999H6.57877C7.57244 9.8999 8.38054 10.7081 8.38054 11.6999V16.1999C8.38054 17.1926 7.57244 17.9999 6.57877 17.9999Z" fill="#757575"/>
<path fill-rule="evenodd" clip-rule="evenodd" d="M11.984 11.6999V16.1999H16.4857L16.4884 11.6999H11.984ZM16.4884 17.9999H11.984C10.9903 17.9999 10.1822 17.1926 10.1822 16.1999V11.6999C10.1822 10.7081 10.9903 9.8999 11.984 9.8999H16.4884C17.4821 9.8999 18.2901 10.7081 18.2901 11.6999V16.1999C18.2901 17.1926 17.4821 17.9999 16.4884 17.9999Z" fill="#757575"/>
</g>
<defs>
<clipPath id="clip0">
<rect width="19" height="18" fill="white" transform="translate(0.000854492)"/>
</clipPath>
</defs>
</svg>
