<svg width="19" height="18" viewBox="0 0 19 18" fill="none" xmlns="http://www.w3.org/2000/svg">
<g clip-path="url(#clip0)">
<path fill-rule="evenodd" clip-rule="evenodd" d="M8.8906 1.79999V3.59998H16.9959L16.9986 1.79999H8.8906ZM16.9985 5.40002H8.89056C7.89689 5.40002 7.08881 4.59272 7.08881 3.60001V1.80001C7.08881 0.807303 7.89689 0 8.89056 0H16.9985C17.9921 0 18.8002 0.807303 18.8002 1.80001V3.60001C18.8002 4.59272 17.9921 5.40002 16.9985 5.40002Z" fill="#757575"/>
<path fill-rule="evenodd" clip-rule="evenodd" d="M8.89058 8.10006V9.90008H16.9958L16.9985 8.10006H8.89058ZM16.9985 11.7001H8.89056C7.89689 11.7001 7.08881 10.8928 7.08881 9.90006V8.10005C7.08881 7.10735 7.89689 6.30005 8.89056 6.30005H16.9985C17.9921 6.30005 18.8002 7.10735 18.8002 8.10005V9.90006C18.8002 10.8928 17.9921 11.7001 16.9985 11.7001Z" fill="#757575"/>
<path fill-rule="evenodd" clip-rule="evenodd" d="M8.89058 14.4001V16.2001H16.9958L16.9985 14.4001H8.89058ZM16.9985 18.0001H8.89056C7.89689 18.0001 7.08881 17.1928 7.08881 16.2001V14.4001C7.08881 13.4074 7.89689 12.6001 8.89056 12.6001H16.9985C17.9921 12.6001 18.8002 13.4074 18.8002 14.4001V16.2001C18.8002 17.1928 17.9921 18.0001 16.9985 18.0001Z" fill="#757575"/>
<path fill-rule="evenodd" clip-rule="evenodd" d="M2.58437 1.79999V3.59998H4.38345L4.38615 1.79999H2.58437ZM4.38609 5.40002H2.58434C1.59068 5.40002 0.782593 4.59272 0.782593 3.60001V1.80001C0.782593 0.807303 1.59068 0 2.58434 0H4.38609C5.37975 0 6.18784 0.807303 6.18784 1.80001V3.60001C6.18784 4.59272 5.37975 5.40002 4.38609 5.40002Z" fill="#757575"/>
<path fill-rule="evenodd" clip-rule="evenodd" d="M2.58437 8.10006V9.90008H4.38345L4.38615 8.10006H2.58437ZM4.38609 11.7001H2.58434C1.59068 11.7001 0.782593 10.8928 0.782593 9.90006V8.10005C0.782593 7.10735 1.59068 6.30005 2.58434 6.30005H4.38609C5.37975 6.30005 6.18784 7.10735 6.18784 8.10005V9.90006C6.18784 10.8928 5.37975 11.7001 4.38609 11.7001Z" fill="#757575"/>
<path fill-rule="evenodd" clip-rule="evenodd" d="M2.58437 14.4001V16.2001H4.38345L4.38615 14.4001H2.58437ZM4.38609 18.0001H2.58434C1.59068 18.0001 0.782593 17.1928 0.782593 16.2001V14.4001C0.782593 13.4074 1.59068 12.6001 2.58434 12.6001H4.38609C5.37975 12.6001 6.18784 13.4074 6.18784 14.4001V16.2001C6.18784 17.1928 5.37975 18.0001 4.38609 18.0001Z" fill="#757575"/>
</g>
<defs>
<clipPath id="clip0">
<rect width="19" height="18" fill="white" transform="translate(0.000854492)"/>
</clipPath>
</defs>
</svg>
