<svg width="36" height="36" viewBox="0 0 36 36" fill="none" xmlns="http://www.w3.org/2000/svg">
<path d="M18 18.1219C20.74 18.1219 22.96 15.9019 22.96 13.1619C22.96 10.4219 20.74 8.20191 18 8.20191C15.26 8.19991 13.04 10.4199 13.04 13.1599C13.038 15.8999 15.26 18.1219 18 18.1219ZM18 10.7199C19.348 10.7199 20.44 11.8119 20.44 13.1599C20.44 14.5079 19.348 15.5999 18 15.5999C16.652 15.5999 15.56 14.5079 15.56 13.1599C15.56 11.8119 16.652 10.7199 18 10.7199ZM23.718 18.7259C23.438 18.1639 22.662 17.6959 21.632 18.5079C20.238 19.6059 18 19.6059 18 19.6059C18 19.6059 15.762 19.6059 14.368 18.5079C13.338 17.6959 12.562 18.1639 12.282 18.7259C11.792 19.7059 12.344 20.1799 13.59 20.9799C14.654 21.6619 16.114 21.9179 17.058 22.0139L16.27 22.7999C15.16 23.9079 14.09 24.9799 13.348 25.7239C12.904 26.1679 12.904 26.8879 13.348 27.3319L13.482 27.4659C13.926 27.9099 14.646 27.9099 15.09 27.4659L18.012 24.5419C19.122 25.6519 20.192 26.7219 20.936 27.4659C21.38 27.9099 22.1 27.9099 22.544 27.4659L22.678 27.3319C23.122 26.8879 23.122 26.1679 22.678 25.7239L19.756 22.7999L18.966 22.0099C19.91 21.9119 21.356 21.6559 22.41 20.9799C23.656 20.1819 24.206 19.7059 23.718 18.7259Z" fill=""/>
</svg>
