<svg width="22" height="18" viewBox="0 0 22 18" fill="none" xmlns="http://www.w3.org/2000/svg">
<g filter="url(#filter0_d)">
<path fill-rule="evenodd" clip-rule="evenodd" d="M3.43077 12.0917C2.27381 10.9356 1.63641 9.39813 1.63641 7.76169C1.63641 6.12525 2.27381 4.587 3.43077 3.43085C4.58773 2.27307 6.12516 1.6365 7.7616 1.6365C9.39722 1.6365 10.9355 2.27307 12.0924 3.43167C13.2494 4.587 13.8868 6.12525 13.8868 7.76169C13.8868 9.39813 13.2494 10.9356 12.0924 12.0917C10.9355 13.2495 9.39722 13.8861 7.7616 13.8861C6.12516 13.8861 4.58773 13.2495 3.43077 12.0917ZM17.5213 15.2074L14.282 11.9673C15.0871 10.7244 15.5233 9.27779 15.5233 7.76163C15.5233 5.68826 14.7157 3.73926 13.2494 2.27301C11.784 0.806764 9.83499 0 7.76163 0C5.68826 0 3.73926 0.806764 2.27383 2.27301C0.807582 3.73926 0 5.68826 0 7.76163C0 9.83417 0.807582 11.784 2.27383 13.2494C3.73926 14.7157 5.68826 15.5224 7.76163 15.5224C9.27779 15.5224 10.7252 15.0871 11.9681 14.2812L15.2066 17.5205C15.5167 17.8298 15.9266 18 16.3644 18C16.8013 18 17.2121 17.8298 17.5213 17.5205C17.8306 17.2121 18.0008 16.8013 18.0008 16.3636C18.0008 15.9266 17.8306 15.5159 17.5213 15.2074Z" fill="#757575"/>
</g>
<defs>
<filter id="filter0_d" x="-4" y="0" width="26.0008" height="26" filterUnits="userSpaceOnUse" color-interpolation-filters="sRGB">
<feFlood flood-opacity="0" result="BackgroundImageFix"/>
<feColorMatrix in="SourceAlpha" type="matrix" values="0 0 0 0 0 0 0 0 0 0 0 0 0 0 0 0 0 0 127 0"/>
<feOffset dy="4"/>
<feGaussianBlur stdDeviation="2"/>
<feColorMatrix type="matrix" values="0 0 0 0 0 0 0 0 0 0 0 0 0 0 0 0 0 0 0.25 0"/>
<feBlend mode="normal" in2="BackgroundImageFix" result="effect1_dropShadow"/>
<feBlend mode="normal" in="SourceGraphic" in2="effect1_dropShadow" result="shape"/>
</filter>
</defs>
</svg>
