<svg width="36" height="36" viewBox="0 0 36 36" fill="none" xmlns="http://www.w3.org/2000/svg">
<g clip-path="url(#clip0)">
<path d="M28 11.7979C27.301 12.1246 26.5497 12.3446 25.7612 12.4438C26.5663 11.9363 27.1846 11.1321 27.4751 10.1738C26.7222 10.6438 25.8878 10.9854 24.9996 11.1696C24.2895 10.3721 23.2753 9.87378 22.1543 9.87378C19.6376 9.87378 17.7883 12.3454 18.3567 14.9113C15.118 14.7404 12.2458 13.1071 10.3229 10.6246C9.30163 12.4688 9.79325 14.8813 11.5286 16.1029C10.8905 16.0813 10.2888 15.8971 9.76396 15.5896C9.72121 17.4904 11.0156 19.2688 12.8903 19.6646C12.3416 19.8213 11.7408 19.8579 11.1296 19.7346C11.6252 21.3646 13.0644 22.5504 14.7713 22.5838C13.1325 23.9363 11.0678 24.5404 9 24.2838C10.725 25.4479 12.7747 26.1271 14.9755 26.1271C22.2129 26.1271 26.3019 19.6929 26.0549 13.9221C26.8165 13.3429 27.4775 12.6204 28 11.7979Z" fill=""/>
</g>
<defs>
<clipPath id="clip0">
<rect width="19" height="20" fill="white" transform="translate(9 8)"/>
</clipPath>
</defs>
</svg>
