<svg width="36" height="36" viewBox="0 0 36 36" fill="none" xmlns="http://www.w3.org/2000/svg">
<path d="M11.8767 8H13.0767L13.9 11.085L14.6633 8H15.875L14.4875 12.5875V15.7183H13.295V12.5875L11.8767 8V8ZM17.3717 9.9775C16.4392 9.9775 15.8208 10.5942 15.8208 11.5067V14.2975C15.8208 15.3008 16.345 15.8233 17.3717 15.8233C18.2233 15.8233 18.8933 15.2542 18.8933 14.2975V11.5067C18.8933 10.6158 18.2292 9.9775 17.3717 9.9775ZM17.8142 14.25C17.8142 14.56 17.6558 14.7883 17.3708 14.7883C17.0783 14.7883 16.9092 14.5492 16.9092 14.25V11.6008C16.9092 11.2892 17.0525 11.0583 17.35 11.0583C17.675 11.0583 17.8142 11.2825 17.8142 11.6008V14.25ZM21.755 10.025V14.3467C21.6258 14.5083 21.3383 14.7733 21.1325 14.7733C20.9067 14.7733 20.8508 14.6183 20.8508 14.39V10.025H19.7925V14.7833C19.7925 15.3458 19.9642 15.8 20.5317 15.8C20.8517 15.8 21.2967 15.6333 21.755 15.0892V15.7175H22.8133V10.025H21.755ZM23.5908 21.5733C23.2175 21.5733 23.14 21.8358 23.14 22.2092V22.7583H24.0308V22.2083C24.0317 21.8417 23.9542 21.5733 23.5908 21.5733ZM19.6717 21.6067C19.6017 21.6425 19.5325 21.6975 19.4633 21.7717V25.1508C19.5458 25.2392 19.625 25.3025 19.7025 25.3417C19.8667 25.425 20.1067 25.4308 20.2183 25.2858C20.2767 25.2092 20.3058 25.085 20.3058 24.9117V22.1125C20.3058 21.9292 20.27 21.7908 20.1983 21.6958C20.0758 21.535 19.8483 21.5175 19.6717 21.6067ZM23.6942 17.2775C21.5242 17.13 14.4725 17.13 12.3058 17.2775C9.96082 17.4375 9.68416 18.8542 9.66666 22.5833C9.68416 26.3058 9.95832 27.7292 12.3058 27.8892C14.4725 28.0367 21.5242 28.0367 23.6942 27.8892C26.0392 27.7292 26.3158 26.3117 26.3333 22.5833C26.3158 18.8608 26.0417 17.4375 23.6942 17.2775ZM13.4242 26.1825H12.2883V19.8992H11.1133V18.8325H14.5983V19.8992H13.4233V26.1825H13.4242ZM17.4625 26.1825H16.4542V25.5842C16.2683 25.805 16.075 25.9733 15.8742 26.0883C15.3308 26.4 14.585 26.3925 14.585 25.2925V20.7608H15.5925V24.9175C15.5925 25.1358 15.645 25.2825 15.8608 25.2825C16.0575 25.2825 16.3308 25.03 16.4533 24.8767V20.7608H17.4617V26.1825H17.4625ZM21.3433 25.0592C21.3433 25.73 21.0925 26.2517 20.4217 26.2517C20.0525 26.2517 19.745 26.1167 19.4642 25.7658V26.1825H18.4467V18.8325H19.4642V21.1992C19.6917 20.9217 20.0008 20.6925 20.3608 20.6925C21.0992 20.6925 21.3442 21.3167 21.3442 22.0517V25.0592H21.3433ZM25.0692 23.5992H23.1408V24.6225C23.1408 25.0292 23.1758 25.3808 23.5808 25.3808C24.0067 25.3808 24.0317 25.0942 24.0317 24.6225V24.2458H25.0692V24.6533C25.0692 25.6975 24.6208 26.3308 23.5583 26.3308C22.5958 26.3308 22.1033 25.6292 22.1033 24.6533V22.2192C22.1033 21.2783 22.725 20.6242 23.6342 20.6242C24.6017 20.6242 25.0683 21.2392 25.0683 22.2192V23.5992H25.0692Z" fill=""/>
</svg>
