<svg xmlns="http://www.w3.org/2000/svg">
<g clip-path="url(#clip0)">
<path fill-rule="evenodd" clip-rule="evenodd" d="M1.82958 1.79999V3.59998H3.62856L3.63127 1.79999H1.82958ZM3.63121 5.40002H1.82946C0.835794 5.40002 0.02771 4.59272 0.02771 3.60001V1.80001C0.02771 0.808203 0.835794 0 1.82946 0H3.63121C4.62487 0 5.43295 0.808203 5.43295 1.80001V3.60001C5.43295 4.59272 4.62487 5.40002 3.63121 5.40002Z"/>
<path fill-rule="evenodd" clip-rule="evenodd" d="M1.82964 8.10006V9.90008H3.62862L3.63133 8.10006H1.82964ZM3.63127 11.7001H1.82952C0.835855 11.7001 0.027771 10.8928 0.027771 9.90006V8.10005C0.027771 7.10825 0.835855 6.30005 1.82952 6.30005H3.63127C4.62493 6.30005 5.43301 7.10825 5.43301 8.10005V9.90006C5.43301 10.8928 4.62493 11.7001 3.63127 11.7001Z"/>
<path fill-rule="evenodd" clip-rule="evenodd" d="M1.82964 14.4001V16.2001H3.62862L3.63133 14.4001H1.82964ZM3.63127 18.0001H1.82952C0.835855 18.0001 0.027771 17.1928 0.027771 16.2001V14.4001C0.027771 13.4074 0.835855 12.6001 1.82952 12.6001H3.63127C4.62493 12.6001 5.43301 13.4074 5.43301 14.4001V16.2001C5.43301 17.1928 4.62493 18.0001 3.63127 18.0001Z"/>
<path fill-rule="evenodd" clip-rule="evenodd" d="M8.13563 1.79999V3.59998H9.9347L9.93741 1.79999H8.13563ZM9.93742 5.40002H8.13567C7.14201 5.40002 6.33392 4.59272 6.33392 3.60001V1.80001C6.33392 0.808203 7.14201 0 8.13567 0H9.93742C10.9311 0 11.7392 0.808203 11.7392 1.80001V3.60001C11.7392 4.59272 10.9311 5.40002 9.93742 5.40002Z"/>
<path fill-rule="evenodd" clip-rule="evenodd" d="M8.13561 8.10006V9.90008H9.93469L9.93739 8.10006H8.13561ZM9.93742 11.7001H8.13567C7.14201 11.7001 6.33392 10.8928 6.33392 9.90006V8.10005C6.33392 7.10825 7.14201 6.30005 8.13567 6.30005H9.93742C10.9311 6.30005 11.7392 7.10825 11.7392 8.10005V9.90006C11.7392 10.8928 10.9311 11.7001 9.93742 11.7001Z"/>
<path fill-rule="evenodd" clip-rule="evenodd" d="M8.13561 14.4001V16.2001H9.93469L9.93739 14.4001H8.13561ZM9.93742 18.0001H8.13567C7.14201 18.0001 6.33392 17.1928 6.33392 16.2001V14.4001C6.33392 13.4074 7.14201 12.6001 8.13567 12.6001H9.93742C10.9311 12.6001 11.7392 13.4074 11.7392 14.4001V16.2001C11.7392 17.1928 10.9311 18.0001 9.93742 18.0001Z"/>
<path fill-rule="evenodd" clip-rule="evenodd" d="M14.4418 1.79999V3.59998H16.2409L16.2436 1.79999H14.4418ZM16.2435 5.40002H14.4418C13.4481 5.40002 12.64 4.59272 12.64 3.60001V1.80001C12.64 0.808203 13.4481 0 14.4418 0H16.2435C17.2372 0 18.0453 0.808203 18.0453 1.80001V3.60001C18.0453 4.59272 17.2372 5.40002 16.2435 5.40002Z"/>
<path fill-rule="evenodd" clip-rule="evenodd" d="M14.4419 8.10006V9.90008H16.2409L16.2436 8.10006H14.4419ZM16.2436 11.7001H14.4418C13.4482 11.7001 12.6401 10.8928 12.6401 9.90006V8.10005C12.6401 7.10825 13.4482 6.30005 14.4418 6.30005H16.2436C17.2372 6.30005 18.0453 7.10825 18.0453 8.10005V9.90006C18.0453 10.8928 17.2372 11.7001 16.2436 11.7001Z"/>
<path fill-rule="evenodd" clip-rule="evenodd" d="M14.4419 14.4001V16.2001H16.2409L16.2436 14.4001H14.4419ZM16.2436 18.0001H14.4418C13.4482 18.0001 12.6401 17.1928 12.6401 16.2001V14.4001C12.6401 13.4074 13.4482 12.6001 14.4418 12.6001H16.2436C17.2372 12.6001 18.0453 13.4074 18.0453 14.4001V16.2001C18.0453 17.1928 17.2372 18.0001 16.2436 18.0001Z"/>
</g>
<defs>
<clipPath id="clip0">
<rect width="19" height="18" fill="white" transform="translate(0.000854492)"/>
</clipPath>
</defs>
</svg>
