<svg class="BackArrow__Icon" width="20" height="20" viewBox="0 0 20 20" fill="white" xmlns="http://www.w3.org/2000/svg"><path fill-rule="evenodd" clip-rule="evenodd" d="M6.53033 3.46967C6.82322 3.76256 6.82322 4.23744 6.53033 4.53033L4.81066 6.25H13C15.6234 6.25 17.75 8.37665 17.75 11C17.75 13.6234 15.6234 15.75 13 15.75H3V14.25H13C14.7949 14.25 16.25 12.7949 16.25 11C16.25 9.20507 14.7949 7.75 13 7.75H4.81066L6.53033 9.46967C6.82322 9.76256 6.82322 10.2374 6.53033 10.5303C6.23744 10.8232 5.76256 10.8232 5.46967 10.5303L1.93934 7L5.46967 3.46967C5.76256 3.17678 6.23744 3.17678 6.53033 3.46967Z"></path></svg>