<svg xmlns="http://www.w3.org/2000/svg">
<g clip-path="url(#clip0)">
<path fill-rule="evenodd" clip-rule="evenodd" d="M3.62056 1.65088C2.82023 1.65088 2.16913 2.30302 2.16913 3.10014V8.60013C2.16913 9.39811 2.81999 10.0494 3.62056 10.0494H9.12597C9.92654 10.0494 10.5774 9.39811 10.5774 8.60013V3.10014C10.5774 2.30302 9.92629 1.65088 9.12597 1.65088H3.62056ZM0.667664 3.10014C0.667664 1.47287 1.9919 0.149414 3.62056 0.149414H9.12597C10.7546 0.149414 12.0789 1.47287 12.0789 3.10014V8.60013C12.0789 10.2287 10.7544 11.5509 9.12597 11.5509H3.62056C1.99215 11.5509 0.667664 10.2287 0.667664 8.60013V3.10014Z"/>
<path fill-rule="evenodd" clip-rule="evenodd" d="M2.31936 14.4001V16.2001H4.11843L4.12113 14.4001H2.31936ZM4.12107 18.0001H2.31933C1.32566 18.0001 0.517578 17.1928 0.517578 16.2001V14.4001C0.517578 13.4074 1.32566 12.6001 2.31933 12.6001H4.12107C5.11474 12.6001 5.92282 13.4074 5.92282 14.4001V16.2001C5.92282 17.1928 5.11474 18.0001 4.12107 18.0001Z"/>
<path fill-rule="evenodd" clip-rule="evenodd" d="M8.62542 14.4001V16.2001H10.4245L10.4272 14.4001H8.62542ZM10.4272 18.0001H8.62548C7.63181 18.0001 6.82373 17.1928 6.82373 16.2001V14.4001C6.82373 13.4074 7.63181 12.6001 8.62548 12.6001H10.4272C11.4209 12.6001 12.229 13.4074 12.229 14.4001V16.2001C12.229 17.1928 11.4209 18.0001 10.4272 18.0001Z"/>
<path fill-rule="evenodd" clip-rule="evenodd" d="M14.9316 1.79999V3.59998H16.7307L16.7334 1.79999H14.9316ZM16.7334 5.40002H14.9316C13.938 5.40002 13.1299 4.59272 13.1299 3.60001V1.80001C13.1299 0.808203 13.938 0 14.9316 0H16.7334C17.727 0 18.5351 0.808203 18.5351 1.80001V3.60001C18.5351 4.59272 17.727 5.40002 16.7334 5.40002Z"/>
<path fill-rule="evenodd" clip-rule="evenodd" d="M14.9316 8.10006V9.90008H16.7306L16.7333 8.10006H14.9316ZM16.7334 11.7001H14.9316C13.938 11.7001 13.1299 10.8928 13.1299 9.90006V8.10005C13.1299 7.10825 13.938 6.30005 14.9316 6.30005H16.7334C17.727 6.30005 18.5351 7.10825 18.5351 8.10005V9.90006C18.5351 10.8928 17.727 11.7001 16.7334 11.7001Z"/>
<path fill-rule="evenodd" clip-rule="evenodd" d="M14.9316 14.4001V16.2001H16.7306L16.7333 14.4001H14.9316ZM16.7334 18.0001H14.9316C13.938 18.0001 13.1299 17.1928 13.1299 16.2001V14.4001C13.1299 13.4074 13.938 12.6001 14.9316 12.6001H16.7334C17.727 12.6001 18.5351 13.4074 18.5351 14.4001V16.2001C18.5351 17.1928 17.727 18.0001 16.7334 18.0001Z"/>
</g>
<defs>
<clipPath id="clip0">
<rect width="19" height="18" fill="white" transform="translate(0.000854492)"/>
</clipPath>
</defs>
</svg>
