<svg width="19" height="19" viewBox="0 0 19 19" fill="none" xmlns="http://www.w3.org/2000/svg">
	<path fill-rule="evenodd" clip-rule="evenodd" d="M16.4736 1.8H2.47363C2.36318 1.8 2.27363 1.88954 2.27363 2V16C2.27363 16.1105 2.36318 16.2 2.47363 16.2H16.4736C16.5841 16.2 16.6736 16.1105 16.6736 16V2C16.6736 1.88954 16.5841 1.8 16.4736 1.8ZM2.47363 0C1.36906 0 0.473633 0.89543 0.473633 2V16C0.473633 17.1046 1.36906 18 2.47363 18H16.4736C17.5782 18 18.4736 17.1046 18.4736 16V2C18.4736 0.895431 17.5782 0 16.4736 0H2.47363Z" fill="#757575"/>
	<path d="M8.67363 4.7H3.67363V6.2H8.67363V4.7Z" fill="#757575"/>
	<path d="M15.4736 12.8H10.4736V14.3H15.4736V12.8Z" fill="#757575"/>
	<path d="M15.4736 10.2H10.4736V11.7H15.4736V10.2Z" fill="#757575"/>
	<path d="M6.97363 15H5.47363V13H3.47363V11.5H5.47363V9.5H6.97363V11.5H8.97363V13H6.97363V15Z" fill="#757575"/>
	<path d="M12.9736 6.5L11.5736 7.9L10.4736 6.9L11.8736 5.5L10.4736 4.1L11.5736 3L12.9736 4.4L14.3736 3L15.4736 4.1L14.0736 5.5L15.4736 6.9L14.3736 7.9L12.9736 6.5Z" fill="#757575"/>
</svg>