<svg width="36" height="36" viewBox="0 0 36 36" fill="none" xmlns="http://www.w3.org/2000/svg">
<g clip-path="url(#clip0)">
<path d="M18 9.8025C20.67 9.8025 20.9867 9.8125 22.0417 9.86083C24.7517 9.98417 26.0175 11.27 26.1408 13.96C26.1892 15.0142 26.1983 15.3308 26.1983 18.0008C26.1983 20.6717 26.1883 20.9875 26.1408 22.0417C26.0167 24.7292 24.7542 26.0175 22.0417 26.1408C20.9867 26.1892 20.6717 26.1992 18 26.1992C15.33 26.1992 15.0133 26.1892 13.9592 26.1408C11.2425 26.0167 9.98333 24.725 9.86 22.0408C9.81167 20.9867 9.80167 20.6708 9.80167 18C9.80167 15.33 9.8125 15.0142 9.86 13.9592C9.98417 11.27 11.2467 9.98333 13.9592 9.86C15.0142 9.8125 15.33 9.8025 18 9.8025ZM18 8C15.2842 8 14.9442 8.01167 13.8775 8.06C10.2458 8.22667 8.2275 10.2417 8.06083 13.8767C8.01167 14.9442 8 15.2842 8 18C8 20.7158 8.01167 21.0567 8.06 22.1233C8.22667 25.755 10.2417 27.7733 13.8767 27.94C14.9442 27.9883 15.2842 28 18 28C20.7158 28 21.0567 27.9883 22.1233 27.94C25.7517 27.7733 27.775 25.7583 27.9392 22.1233C27.9883 21.0567 28 20.7158 28 18C28 15.2842 27.9883 14.9442 27.94 13.8775C27.7767 10.2492 25.7592 8.2275 22.1242 8.06083C21.0567 8.01167 20.7158 8 18 8V8ZM18 12.865C15.1642 12.865 12.865 15.1642 12.865 18C12.865 20.8358 15.1642 23.1358 18 23.1358C20.8358 23.1358 23.135 20.8367 23.135 18C23.135 15.1642 20.8358 12.865 18 12.865ZM18 21.3333C16.1592 21.3333 14.6667 19.8417 14.6667 18C14.6667 16.1592 16.1592 14.6667 18 14.6667C19.8408 14.6667 21.3333 16.1592 21.3333 18C21.3333 19.8417 19.8408 21.3333 18 21.3333ZM23.3383 11.4625C22.675 11.4625 22.1375 12 22.1375 12.6625C22.1375 13.325 22.675 13.8625 23.3383 13.8625C24.0008 13.8625 24.5375 13.325 24.5375 12.6625C24.5375 12 24.0008 11.4625 23.3383 11.4625Z" fill="#2C66BE"/>
</g>
<defs>
<clipPath id="clip0">
<rect width="20" height="20" fill="white" transform="translate(8 8)"/>
</clipPath>
</defs>
</svg>
