<svg width="132" height="28" viewBox="0 0 132 28" fill="none" xmlns="http://www.w3.org/2000/svg">
<path fill-rule="evenodd" clip-rule="evenodd" d="M31.2838 16.5648L36.8908 8.23749L38.7604 8.22827V19.1697H36.8771V10.8282L31.2838 19.1697H29.4006V8.22827H31.2838V16.5648ZM19.4058 25.2982C19.4058 25.2813 19.4058 25.2631 19.4058 25.244C19.4058 25.2248 19.4058 25.2068 19.4058 25.1896C19.4355 24.6953 19.6379 24.2407 20.0129 23.825C20.388 23.4098 20.8821 23.2021 21.4958 23.2021C22.1091 23.2021 22.6045 23.4098 22.9817 23.825C23.3587 24.2407 23.5623 24.6953 23.5918 25.1896C23.5918 25.2068 23.5918 25.2248 23.5918 25.244C23.5918 25.2631 23.5918 25.2813 23.5918 25.2982C23.5918 25.3196 23.5918 25.3398 23.5918 25.3589C23.5918 25.3781 23.5897 25.3984 23.5856 25.4197C23.5557 25.914 23.3534 26.3645 22.9785 26.7715C22.6036 27.1782 22.1093 27.3816 21.4958 27.3816C20.8865 27.3816 20.3944 27.1782 20.0195 26.7715C19.6446 26.3645 19.4423 25.914 19.4122 25.4197C19.4081 25.3984 19.406 25.3781 19.406 25.3589C19.406 25.3398 19.406 25.3196 19.406 25.2982H19.4058ZM19.655 25.2982C19.655 25.8481 19.8425 26.2899 20.2174 26.6243C20.5923 26.9589 21.0056 27.1302 21.4574 27.1389C21.4659 27.1389 21.4731 27.1389 21.4797 27.1389C21.4861 27.1389 21.4914 27.1389 21.4956 27.1389C21.4997 27.1389 21.5052 27.1389 21.5116 27.1389C21.5179 27.1389 21.5254 27.1389 21.5339 27.1389C21.9857 27.1302 22.3988 26.9589 22.7737 26.6243C23.1486 26.2899 23.3362 25.8481 23.3362 25.2982C23.3362 24.7445 23.1486 24.3002 22.7737 23.9657C22.3988 23.6314 21.9857 23.4597 21.5339 23.4512C21.5254 23.4512 21.5179 23.4512 21.5116 23.4512C21.5052 23.4512 21.4997 23.4512 21.4956 23.4512C21.4914 23.4512 21.4861 23.4512 21.4797 23.4512C21.4731 23.4512 21.4659 23.4512 21.4574 23.4512C21.0056 23.4597 20.5923 23.6314 20.2174 23.9657C19.8425 24.3002 19.655 24.7445 19.655 25.2982ZM21.7192 24.2118C21.7405 24.2118 21.7821 24.215 21.8438 24.2214C21.9056 24.2279 21.9706 24.2437 22.0388 24.2694C22.124 24.2993 22.2016 24.3503 22.272 24.4226C22.3423 24.4951 22.3776 24.6017 22.3776 24.7424C22.3776 24.7635 22.3763 24.7847 22.3744 24.8062C22.3721 24.8276 22.371 24.8508 22.371 24.8765C22.354 24.9575 22.3168 25.0342 22.2594 25.1067C22.2018 25.1791 22.0964 25.2386 21.9428 25.2856L22.3776 25.9629C22.3988 25.9971 22.4158 26.0247 22.4288 26.046C22.4413 26.0674 22.4541 26.0843 22.467 26.0972C22.4798 26.1099 22.4925 26.1206 22.5053 26.1291C22.518 26.1376 22.5351 26.144 22.5563 26.1482C22.5691 26.1526 22.5831 26.1567 22.5979 26.161C22.613 26.1654 22.6289 26.1696 22.646 26.1737V26.308H22.2243L21.649 25.3559H21.176V25.9886C21.176 25.9971 21.1771 26.0098 21.1792 26.0269C21.1815 26.0439 21.1888 26.0632 21.2015 26.0843C21.21 26.1014 21.226 26.1184 21.2495 26.1356C21.2729 26.1526 21.3039 26.1654 21.3422 26.1737V26.308H20.7032V26.1737C20.7754 26.161 20.8236 26.1344 20.8468 26.094C20.8704 26.0536 20.8821 25.9992 20.8821 25.931V24.5569C20.8821 24.4759 20.8692 24.4184 20.8437 24.3844C20.8181 24.3503 20.7712 24.3269 20.7032 24.314V24.2118H21.7192ZM21.4763 25.2089C21.5018 25.2089 21.539 25.2068 21.5881 25.2023C21.6372 25.1981 21.6893 25.1874 21.7449 25.1706C21.8214 25.1492 21.8907 25.1077 21.9524 25.0459C22.0142 24.9841 22.0452 24.8893 22.0452 24.7614C22.0452 24.6336 22.0122 24.542 21.946 24.4867C21.8799 24.4311 21.8065 24.3973 21.7256 24.3844C21.6829 24.3758 21.6414 24.3704 21.601 24.3682C21.5605 24.3663 21.5233 24.3652 21.4891 24.3652C21.4848 24.3652 21.4806 24.3652 21.4763 24.3652H21.176V25.2089H21.4763ZM4.20179 11.4201C4.61919 11.6674 5.2134 11.8416 5.70238 11.8754C5.70238 11.8754 14.6274 11.6343 18.9661 11.8272C20.1823 11.882 20.8727 11.944 22.0046 12.5139H22.0044C23.1996 13.2789 23.8576 14.5844 23.5945 16.0104C23.5337 16.4264 23.4044 16.7437 23.2109 17.1184C23.103 17.3349 22.5177 18.2891 22.5177 18.2162C21.325 19.8395 19.5057 21.4057 18.5866 22.1925C17.8666 22.8093 15.2163 24.8425 13.4946 26.2324C13.0039 26.6023 12.485 26.9931 11.9324 27.4061L11.7606 27.3187C12.6517 26.4931 13.6855 25.5443 14.8315 24.5011C17.1692 22.3827 19.9784 19.6007 20.2471 18.2115C20.4553 17.1774 20.0772 16.6991 19.2049 16.1965C18.3683 15.7991 17.3678 15.766 17.3678 15.766C16.8751 15.7188 16.4126 15.7326 15.9355 15.7155C14.2113 15.6993 12.2129 15.7149 10.2297 15.766H5.33937C3.96935 15.6953 2.77755 15.5309 1.91671 15.1875C0.856726 14.695 0.199442 13.6586 0.0483199 12.5171C-0.0207746 12.1668 -0.0276846 11.6901 0.107138 11.269C0.923871 8.10479 5.97929 4.35366 8.54057 2.49821C9.57167 1.6836 10.4038 1.04368 10.9927 0.610335L10.9924 0.610689L11.7662 0L11.8038 0.0756491C11.6525 0.389941 11.2184 0.841536 10.6674 1.33087C9.40851 2.33982 7.79169 3.59362 7.24212 4.258L7.24354 4.25658L7.24212 4.258C6.6472 4.72553 6.1189 5.24906 5.63346 5.8089C4.79405 6.67914 4.08185 7.54406 3.66994 8.30623C3.51846 8.62548 3.38328 8.96386 3.31738 9.31199C3.12728 10.2336 3.41659 10.8587 4.20179 11.4201ZM124.526 8.22827V12.6912H127.368C128.616 12.6912 129.59 12.9774 130.291 13.55C130.993 14.1226 131.344 14.9285 131.344 15.9692C131.344 17.1558 130.894 18.0195 129.995 18.5611C129.322 18.9673 128.444 19.1697 127.363 19.1697H122.643V8.22827H124.526ZM124.526 13.9339V17.9267H127.131C127.495 17.9267 127.817 17.8856 128.098 17.803C128.995 17.5337 129.442 16.906 129.442 15.922C129.442 15.2913 129.227 14.8018 128.801 14.4542C128.373 14.1072 127.768 13.9339 126.984 13.9339H124.526ZM111.622 15.8113H113.506C113.506 16.4622 113.695 16.9957 114.074 17.4086C114.592 17.9679 115.397 18.2468 116.492 18.2468C117.332 18.2468 117.977 18.0562 118.427 17.6739C118.874 17.2912 119.099 16.765 119.099 16.093C119.099 15.3381 118.846 14.797 118.34 14.4649C117.904 14.1871 117.292 14.0471 116.503 14.0471H115.069V12.8045H116.381C117.142 12.8045 117.714 12.6585 118.095 12.3677C118.475 12.076 118.666 11.6438 118.666 11.0712C118.666 10.4363 118.462 9.95776 118.055 9.63479C117.648 9.31235 117.05 9.15095 116.263 9.15095C115.576 9.15095 115.021 9.26965 114.599 9.50883C113.997 9.85076 113.694 10.4363 113.694 11.2656H111.811C111.811 10.4845 112.049 9.81355 112.527 9.25087C113.288 8.35566 114.573 7.90778 116.388 7.90778C117.795 7.90778 118.863 8.20471 119.594 8.79768C120.256 9.32865 120.587 10.0513 120.587 10.9669C120.587 11.6543 120.355 12.2058 119.889 12.622C119.507 12.9752 118.999 13.2096 118.364 13.3244V13.3866C119.124 13.522 119.726 13.787 120.176 14.1823C120.739 14.6815 121.02 15.3641 121.02 16.2268C121.02 17.1227 120.731 17.8457 120.156 18.3974C119.397 19.1263 118.21 19.4898 116.595 19.4898C115.021 19.4898 113.813 19.1989 112.97 18.6164C112.071 17.994 111.622 17.058 111.622 15.8113ZM108.789 14.8192L106.609 14.8206L103.86 19.1661L101.672 19.1697L104.731 14.6709C103.844 14.5664 103.127 14.265 102.579 13.7635C101.96 13.1901 101.651 12.4347 101.651 11.4968C101.651 10.2242 102.143 9.3228 103.126 8.7906C103.829 8.41572 104.756 8.22827 105.908 8.22827H110.672V19.1697H108.789V14.8192ZM108.789 9.47109H106.035C105.206 9.47109 104.587 9.66278 104.173 10.0465C103.759 10.4303 103.554 10.9178 103.554 11.5085C103.554 12.2547 103.812 12.7993 104.33 13.1405C104.78 13.4316 105.418 13.5762 106.244 13.5762H108.789V9.47109ZM91.4312 8.22827H96.3216C97.5599 8.22827 98.4942 8.47825 99.1264 8.97857C99.7588 9.47871 100.075 10.1562 100.075 11.0107C100.075 11.5629 99.8811 12.0582 99.495 12.4955C99.109 12.9329 98.5722 13.2144 97.8848 13.3391V13.4173C98.5603 13.5117 99.1301 13.7351 99.5962 14.0894C100.23 14.5789 100.546 15.2571 100.546 16.1222C100.546 17.111 100.187 17.8664 99.469 18.3882C98.7532 18.9096 97.6484 19.1697 96.1571 19.1697H91.4312V8.22827ZM93.3144 9.47109V12.8796H95.9237C96.6958 12.8796 97.2599 12.7361 97.6176 12.4501C97.9753 12.1628 98.1544 11.7381 98.1544 11.1754C98.1544 10.6964 98.0283 10.321 97.7765 10.0495C97.4256 9.6642 96.8276 9.47109 95.9875 9.47109H93.3144ZM93.3144 14.1226V17.9267H96.032C96.7901 17.9267 97.3667 17.8289 97.76 17.6312C98.3484 17.331 98.6439 16.7886 98.6439 16.0011C98.6439 15.3381 98.4368 14.8605 98.0224 14.565C97.608 14.2694 96.9456 14.1226 96.032 14.1226H93.3144ZM88.2659 15.5456H90.1304C89.9903 16.585 89.6172 17.4322 89.0146 18.0868C88.1563 19.0223 86.884 19.4898 85.1985 19.4898C83.3152 19.4898 81.8885 18.9071 80.9199 17.7417C80.1041 16.7529 79.6968 15.4676 79.6968 13.8857C79.6968 13.075 79.7747 12.3566 79.9298 11.7323C80.1959 10.65 80.6808 9.79123 81.3848 9.1568C82.2981 8.32448 83.5576 7.90778 85.1595 7.90778C86.4532 7.90778 87.5078 8.13739 88.3223 8.59554C89.4335 9.21969 89.989 10.2242 89.989 11.6089H88.1316C88.0211 10.7274 87.6676 10.0797 87.077 9.6642C86.599 9.32227 85.9587 9.15095 85.1586 9.15095C84.0191 9.15095 83.1503 9.55826 82.5523 10.3739C81.9544 11.1884 81.6555 12.3383 81.6555 13.8233C81.6555 15.277 82.0203 16.399 82.7502 17.1875C83.4107 17.8939 84.245 18.2468 85.2559 18.2468C86.1258 18.2468 86.8451 17.9772 87.4136 17.4395C87.9825 16.9016 88.2659 16.2705 88.2659 15.5456ZM70.3759 8.22827H74.9135C76.0245 8.22827 76.9119 8.38985 77.5733 8.713C78.6 9.2142 79.1143 10.1018 79.1143 11.3756C79.1143 12.2625 78.9105 12.9667 78.5034 13.4881C77.8135 14.3754 76.5753 14.8192 74.7909 14.8192H72.2592V19.1697H70.3759V8.22827ZM72.2592 9.47109V13.5762H74.619C75.5607 13.5762 76.2293 13.3914 76.6224 13.0217C77.0154 12.6528 77.2122 12.1146 77.2122 11.4066C77.2122 10.7412 77.0014 10.2515 76.5801 9.93952C76.1584 9.6277 75.5042 9.47109 74.619 9.47109H72.2592ZM62.7782 12.8984H68.6594V14.1413H62.7782V17.9267H69.4398V19.1697H60.8949V8.22827H69.2501V9.47109H62.7782V12.8984ZM54.5097 9.47109H50.8558V8.22827H60.0275V9.47109H56.3928V19.1697H54.5097V9.47109ZM42.8132 14.0471V19.1697H40.93V8.22827H42.8132V12.8045H48.0676V8.22827H49.9509V19.1697H48.0676V14.0471H42.8132Z" fill="white"/>
</svg>
