<svg width="34" height="34" viewBox="0 0 34 34" fill="none" xmlns="http://www.w3.org/2000/svg">
<path fill-rule="evenodd" clip-rule="evenodd" d="M0 3.16279C0 1.41603 1.4255 0 3.18395 0H30.8161C32.5745 0 34 1.41603 34 3.16279V30.8372C34 32.584 32.5745 34 30.8161 34H3.18395C1.4255 34 0 32.584 0 30.8372V3.16279Z" fill="#254598"/>
<path fill-rule="evenodd" clip-rule="evenodd" d="M16.9007 2.84863L33.9935 19.9886L34 19.9989C34 23.1055 34 27.8153 34 30.4663C34 33.1173 32.2004 33.9993 30.4432 33.9993C28.686 33.9993 23.3229 33.9993 19.8333 33.9993L17.1064 31.5848L18.236 30.5406L6.06677 18.358L6.14614 13.0807L9.87934 8.61164L16.9007 2.84863Z" fill="url(#paint0_linear)"/>
<path fill-rule="evenodd" clip-rule="evenodd" d="M16.9263 31.493L17.1065 31.5854C17.6862 31.1492 18.2307 30.7363 18.7456 30.3457C20.5517 28.878 23.3317 26.7307 24.0872 26.0793C25.0514 25.2484 26.9597 23.5944 28.2109 21.8801L28.211 21.8804C28.521 21.4674 28.7586 21.0831 28.9369 20.7236C29.074 20.457 29.1863 20.1931 29.2673 19.9348C29.2981 19.8052 29.3225 19.6766 29.341 19.5495C29.9199 16.3871 27.0369 15.2489 24.4851 15.1329C19.9337 14.9291 10.5709 15.1838 10.5709 15.1838C10.5709 15.1838 10.458 15.176 10.2822 15.1475C9.97118 15.0972 9.45684 14.9773 8.99661 14.703C8.65349 14.4561 8.24439 13.9518 8.08963 13.6242L8.06882 13.5472C7.99323 13.2475 7.98354 12.8932 8.06882 12.4767C8.10455 12.2867 8.15911 12.0954 8.23123 11.9067C8.28796 11.7501 8.35738 11.5867 8.43863 11.4146C8.87078 10.6096 9.61796 9.69621 10.4986 8.77724C11.8509 7.2068 16.4115 3.8927 16.9715 2.72241L16.9321 2.64258L16.1207 3.28713C13.0574 5.55657 9.21849 8.30762 6.76111 11.1094C5.7328 12.2819 4.98282 13.4452 4.70125 14.5434C4.21193 16.0811 5.18323 18.0193 6.59942 18.6817C7.50241 19.0443 8.75276 19.218 10.1901 19.2927H15.3202C17.4006 19.2388 19.4973 19.2221 21.3059 19.2393C21.8065 19.2574 22.2917 19.2429 22.8085 19.2927C22.8085 19.2927 23.8603 19.3275 24.7385 19.7486C25.4449 20.1582 25.9367 20.5527 25.8746 21.5313C25.8674 21.6397 25.8531 21.7554 25.8291 21.8751C25.5472 23.3423 22.6004 26.2804 20.148 28.5175C18.9457 29.6191 17.8612 30.6211 16.9263 31.493Z" fill="white"/>
<defs>
<linearGradient id="paint0_linear" x1="11.824" y1="5.84496" x2="28.3969" y2="31.1292" gradientUnits="userSpaceOnUse">
<stop stop-color="#1E397C"/>
<stop offset="1" stop-color="#254598"/>
</linearGradient>
</defs>
</svg>
