<svg width="19" height="18" viewBox="0 0 19 18" fill="none" xmlns="http://www.w3.org/2000/svg">
<g clip-path="url(#clip0)">
<path fill-rule="evenodd" clip-rule="evenodd" d="M4.91076 13.4713L1.63798 15.6534V6.16484L4.91076 3.98272V13.4713ZM15.1834 14.5899C15.4108 14.4386 15.5475 14.1825 15.5475 13.9092V11.4546H13.9111V13.4715L10.6383 15.6536V14.7274V5.72727C10.6383 5.47854 10.5254 5.24372 10.3315 5.08826L6.24053 1.81549C6.12189 1.72221 5.93779 1.6494 5.75779 1.64285C5.58679 1.6363 5.39697 1.69276 5.27506 1.77376L0.365897 5.04653C0.138439 5.19872 0.00180054 5.45399 0.00180054 5.72727V17.182C0.00180054 17.4839 0.167894 17.7613 0.433807 17.9036C0.554899 17.9683 0.687447 18.0002 0.819994 18.0002C0.978724 18.0002 1.13663 17.9544 1.27409 17.8627L5.68497 14.9213L9.30875 17.821C9.45684 17.9396 9.63767 18.0002 9.82012 18.0002C9.9404 18.0002 10.0615 17.9748 10.1744 17.92L15.1834 14.5899Z"/>
<path fill-rule="evenodd" clip-rule="evenodd" d="M13.0928 3.27277C13.0928 2.36949 13.8259 1.63638 14.7292 1.63638C15.6325 1.63638 16.3656 2.36949 16.3656 3.27277C16.3656 4.17606 15.6325 4.90916 14.7292 4.90916C13.8259 4.90916 13.0928 4.17606 13.0928 3.27277ZM18.0021 3.27277C18.0021 1.46538 16.5367 0 14.7293 0C12.9219 0 11.4565 1.46538 11.4565 3.27277C11.4565 5.72735 14.7293 9.81832 14.7293 9.81832C14.7293 9.81832 18.0021 5.72735 18.0021 3.27277Z"/>
</g>
<defs>
<clipPath id="clip0">
<rect width="19" height="18.0001" fill="white" transform="translate(0.000823975)"/>
</clipPath>
</defs>
</svg>
