<svg width="36" height="36" viewBox="0 0 36 36" fill="none" xmlns="http://www.w3.org/2000/svg">
<g clip-path="url(#clip0)">
<path fill-rule="evenodd" clip-rule="evenodd" d="M21.5543 25.9826C21.8092 26.1726 22.1377 26.2201 22.4307 26.1035C22.7236 25.986 22.9389 25.7226 23.0038 25.4035C23.6918 22.0001 25.3606 13.386 25.9868 10.2901C26.0343 10.0568 25.9552 9.81429 25.781 9.65846C25.6068 9.50262 25.3654 9.45762 25.15 9.54179C21.8306 10.8351 11.6078 14.8726 7.42937 16.5001C7.16416 16.6035 6.99158 16.8718 7.00028 17.166C7.00978 17.461 7.1982 17.7168 7.46974 17.8026C9.34362 18.3926 11.8033 19.2135 11.8033 19.2135C11.8033 19.2135 12.9528 22.8676 13.5521 24.726C13.6273 24.9593 13.8007 25.1426 14.0295 25.206C14.2575 25.2685 14.5013 25.2026 14.6715 25.0335C15.6342 24.0768 17.1225 22.5976 17.1225 22.5976C17.1225 22.5976 19.9504 24.7801 21.5543 25.9826ZM12.838 18.7518L14.1672 23.3668L14.4625 20.4443C14.4625 20.4443 19.5981 15.5685 22.5257 12.7893C22.6112 12.7076 22.623 12.571 22.5518 12.4751C22.4813 12.3793 22.3515 12.3568 22.2541 12.4218C18.861 14.7026 12.838 18.7518 12.838 18.7518Z" fill="#2C66BE"/>
</g>
<defs>
<clipPath id="clip0">
<rect width="19" height="20" fill="white" transform="translate(7 7)"/>
</clipPath>
</defs>
</svg>
