<svg width="20" height="20" viewBox="0 0 20 20" fill="none" xmlns="http://www.w3.org/2000/svg">
<g clip-path="url(#clip0)">
<path d="M10.9683 15.8284C11.4758 15.8284 11.6833 15.4901 11.6775 15.0659C11.6517 13.4684 12.2725 12.6084 13.3933 13.7292C14.6333 14.9692 14.89 15.8284 16.3958 15.8284H19.0625C19.7358 15.8284 20.0008 15.6117 20.0008 15.2717C20.0008 14.5526 18.8167 13.2834 17.8133 12.3517C16.4083 11.0476 16.3425 11.0167 17.5525 9.44675C19.0533 7.49758 21.0167 5.00008 19.28 5.00008H15.9625C15.3192 5.00008 15.2725 5.36258 15.0433 5.90258C14.2142 7.85842 12.6383 10.3917 12.04 10.0042C11.4142 9.60008 11.7008 7.99925 11.7483 5.62008C11.7608 4.99175 11.7575 4.56091 10.7975 4.33758C10.2733 4.21675 9.76333 4.16675 9.29 4.16675C7.39583 4.16675 6.08917 4.96091 6.83167 5.09925C8.14083 5.34341 8.015 8.17592 7.71 9.39925C7.17833 11.5292 5.18 7.71258 4.3475 5.81175C4.14667 5.35508 4.085 5.00008 3.36833 5.00008H0.655833C0.245833 5.00008 0 5.13341 0 5.43008C0 5.93175 2.46667 11.0301 4.82167 13.5717C7.11833 16.0509 9.38833 15.8284 10.9683 15.8284Z" fill="#2C66BE"/>
</g>
<defs>
<clipPath id="clip0">
<rect width="20" height="20" fill="white"/>
</clipPath>
</defs>
</svg>
