<svg width="36" height="36" viewBox="0 0 36 36" fill="none" xmlns="http://www.w3.org/2000/svg">
<g clip-path="url(#clip0)">
<path d="M18.9683 23.8284C19.4758 23.8284 19.6833 23.4901 19.6775 23.0659C19.6517 21.4684 20.2725 20.6084 21.3933 21.7292C22.6333 22.9692 22.89 23.8284 24.3958 23.8284H27.0625C27.7358 23.8284 28.0008 23.6117 28.0008 23.2717C28.0008 22.5526 26.8167 21.2834 25.8133 20.3517C24.4083 19.0476 24.3425 19.0167 25.5525 17.4467C27.0533 15.4976 29.0167 13.0001 27.28 13.0001H23.9625C23.3192 13.0001 23.2725 13.3626 23.0433 13.9026C22.2142 15.8584 20.6383 18.3917 20.04 18.0042C19.4142 17.6001 19.7008 15.9992 19.7483 13.6201C19.7608 12.9917 19.7575 12.5609 18.7975 12.3376C18.2733 12.2167 17.7633 12.1667 17.29 12.1667C15.3958 12.1667 14.0892 12.9609 14.8317 13.0992C16.1408 13.3434 16.015 16.1759 15.71 17.3992C15.1783 19.5292 13.18 15.7126 12.3475 13.8117C12.1467 13.3551 12.085 13.0001 11.3683 13.0001H8.65583C8.24583 13.0001 8 13.1334 8 13.4301C8 13.9317 10.4667 19.0301 12.8217 21.5717C15.1183 24.0509 17.3883 23.8284 18.9683 23.8284Z" fill="#2C66BE"/>
</g>
<defs>
<clipPath id="clip0">
<rect width="20" height="20" fill="white" transform="translate(8 8)"/>
</clipPath>
</defs>
</svg>
