<svg width="18" height="18" viewBox="0 0 18 18" fill="none" xmlns="http://www.w3.org/2000/svg">
<path fill-rule="evenodd" clip-rule="evenodd" d="M13.4905 16.2827C12.1234 15.6527 10.6042 15.2999 9.00035 15.2999C7.39653 15.2999 5.87642 15.6527 4.50931 16.2827C4.1259 16.4591 3.9162 16.8803 4.0071 17.2925C4.0971 17.7057 4.4643 18 4.88641 18H13.1134C13.5364 18 13.9018 17.7057 13.9927 17.2934C14.0827 16.8803 13.8748 16.4591 13.4905 16.2827Z" fill=""/>
<path fill-rule="evenodd" clip-rule="evenodd" d="M11.7001 5.40002V9.00006C12.6919 9.00006 13.5002 8.19365 13.5002 7.20004C13.5002 6.20733 12.6919 5.40002 11.7001 5.40002Z" fill=""/>
<path fill-rule="evenodd" clip-rule="evenodd" d="M11.7001 10.8001H9.9001V3.60004H11.7001C13.6855 3.60004 15.3002 5.21555 15.3002 7.20007C15.3002 9.18459 13.6855 10.8001 11.7001 10.8001ZM8.10008 10.8001H6.30006V8.10008H4.50004V10.8001H2.70003V3.60004H4.50004V6.30006H6.30006V3.60004H8.10008V10.8001ZM16.2002 0H1.80002C0.807308 0 0 0.806408 0 1.80002V12.6001C0 13.5928 0.807308 14.4001 1.80002 14.4001H16.2002C17.1929 14.4001 18.0002 13.5928 18.0002 12.6001V1.80002C18.0002 0.806408 17.1929 0 16.2002 0Z" fill=""/>
</svg>
