<svg width="18" height="18" viewBox="0 0 18 18" fill="none" xmlns="http://www.w3.org/2000/svg">
<path fill-rule="evenodd" clip-rule="evenodd" d="M13.4906 16.2827C12.1234 15.6527 10.6042 15.2999 9.00041 15.2999C7.3966 15.2999 5.87648 15.6527 4.50937 16.2827C4.12596 16.4591 3.91626 16.8803 4.00716 17.2925C4.09716 17.7056 4.46437 18 4.88647 18H13.1135C13.5365 18 13.9019 17.7056 13.9928 17.2934C14.0828 16.8803 13.8749 16.4591 13.4906 16.2827Z" fill=""/>
<path fill-rule="evenodd" clip-rule="evenodd" d="M1.80002 12.6001V1.80002H16.2002L16.2011 12.6001H1.80002ZM16.2002 0H1.80002C0.807308 0 0 0.806408 0 1.80002V12.6001C0 13.5928 0.807308 14.4001 1.80002 14.4001H16.2002C17.1929 14.4001 18.0002 13.5928 18.0002 12.6001V1.80002C18.0002 0.806408 17.1929 0 16.2002 0Z" fill=""/>
<path fill-rule="evenodd" clip-rule="evenodd" d="M11.7002 9.00003V5.39999C12.6929 5.39999 13.5002 6.2073 13.5002 7.20001C13.5002 8.19362 12.6929 9.00003 11.7002 9.00003ZM11.7002 3.59998H9.90015V10.8H11.7002C13.6856 10.8 15.3002 9.18453 15.3002 7.20001C15.3002 5.21549 13.6856 3.59998 11.7002 3.59998Z" fill=""/>
<path fill-rule="evenodd" clip-rule="evenodd" d="M6.30011 6.3H4.50009V3.59998H2.70007V10.8H4.50009V8.10002H6.30011V10.8H8.10013V3.59998H6.30011V6.3Z" fill=""/>
</svg>
