<svg width="18" height="18" xmlns="http://www.w3.org/2000/svg">

 <g>
  <title>background</title>
  <rect fill="none" id="canvas_background" height="20" width="20" y="-1" x="-1"/>
 </g>
 <g>
  <title>Layer 1</title>
  <path stroke="null" id="svg_1" d="m14.648626,3.96269l-6.5105,0l0,5.944034l6.5105,0l0,-5.944034zm1.627625,-3.96269l-14.648626,0c-0.899263,0 -1.627625,0.886652 -1.627625,1.981345l0,13.869414c0,1.094693 0.728362,1.961531 1.627625,1.961531l14.648626,0c0.899263,0 1.627625,-0.871792 1.627625,-1.961531l0,-13.869414c0,-1.094693 -0.728362,-1.981345 -1.627625,-1.981345zm0,15.865619l-14.648626,0l0,-13.899134l14.648626,0l0,13.899134z"/>
 </g>
</svg>