<svg width="22" height="20" viewBox="0 0 22 20" fill="none" xmlns="http://www.w3.org/2000/svg">
<path fill-rule="evenodd" clip-rule="evenodd" d="M16.667 7.58796V10.0002H17.7781C18.3914 10.0002 18.8892 9.50242 18.8892 8.88908V5.55573C18.8892 5.49906 18.8659 5.45128 18.857 5.39795L16.667 7.58796Z" fill=""/>
<path fill-rule="evenodd" clip-rule="evenodd" d="M21.0268 0.68667C20.8546 0.271113 20.449 0 20.0001 0H8.88894V4.44447H7.77782V0H5.55559V5.55559H4.44447V0.113334C1.91223 0.628892 0 2.87335 0 5.55559C0 8.62005 2.49224 11.1112 5.55559 11.1112H14.4445C15.0579 11.1112 15.5556 10.6134 15.5556 10.0001V7.12782L20.7857 1.89668C21.1035 1.58001 21.199 1.10112 21.0268 0.68667Z" fill=""/>
<path fill-rule="evenodd" clip-rule="evenodd" d="M7.77806 13.6066L2.22248 15.1944V12.2222H0.000244141V20H2.22248V17.5055L9.19474 15.5133C9.67141 15.3766 10.0003 14.9411 10.0003 14.4444V12.2222H7.77806V13.6066Z" fill=""/>
</svg>
