<svg width="18" height="20" viewBox="0 0 18 20" fill="none" xmlns="http://www.w3.org/2000/svg">
<path fill-rule="evenodd" clip-rule="evenodd" d="M10 5.99995V1.99995H12.465L15.131 5.99995H10ZM9 17L5 13H7V9.00002H11V13H13L9 17ZM5.53502 1.99995H8.00002V5.99995H2.86902L5.53502 1.99995ZM17.995 7C17.995 6.806 17.944 6.612 17.832 6.445L13.832 0.445C13.646 0.167 13.334 0 13 0H5C4.666 0 4.354 0.167 4.168 0.445L0.168 6.445C0.056 6.612 0.005 6.806 0.005 7H0V18C0 19.103 0.897 20 2 20H16C17.103 20 18 19.103 18 18V7H17.995Z" fill="white"/>
</svg>
