<svg width="34" height="32" viewBox="0 0 34 32" fill="none" xmlns="http://www.w3.org/2000/svg">
<path d="M17.1668 26.3659L17.0002 26.5326L16.8168 26.3659C8.90016 19.1826 3.66683 14.4326 3.66683 9.61589C3.66683 6.28255 6.16683 3.78255 9.50016 3.78255C12.0668 3.78255 14.5668 5.44922 15.4502 7.71589H18.5502C19.4335 5.44922 21.9335 3.78255 24.5002 3.78255C27.8335 3.78255 30.3335 6.28255 30.3335 9.61589C30.3335 14.4326 25.1002 19.1826 17.1668 26.3659ZM24.5002 0.449219C21.6002 0.449219 18.8168 1.79922 17.0002 3.91589C15.1835 1.79922 12.4002 0.449219 9.50016 0.449219C4.36683 0.449219 0.333496 4.46589 0.333496 9.61589C0.333496 15.8992 6.00016 21.0492 14.5835 28.8326L17.0002 31.0326L19.4168 28.8326C28.0002 21.0492 33.6668 15.8992 33.6668 9.61589C33.6668 4.46589 29.6335 0.449219 24.5002 0.449219Z" fill="#fff"/>
</svg>

