<svg width="30" height="30" viewBox="0 0 30 30" fill="#fff" xmlns="http://www.w3.org/2000/svg">
<path fill-rule="evenodd" clip-rule="evenodd" d="M15.5 8.25H24.7C25.965 8.25 27 9.25125 27 10.5V21.75C27 22.3467 26.7577 22.919 26.3263 23.341C25.895 23.7629 25.31 24 24.7 24H6.3C5.69 24 5.10499 23.7629 4.67365 23.341C4.24232 22.919 4 22.3467 4 21.75V8.25C4 7.00125 5.0235 6 6.3 6H13.2L15.5 8.25ZM20.1992 10.5996H22.4492V12.8496H20.1992V10.5996ZM22.4492 15.0996V12.8496H24.6992V15.0996H22.4492ZM22.4492 17.3496H20.1992V15.0996H22.4492V17.3496ZM22.4492 19.5996V17.3496H24.6992V19.5996H22.4492ZM22.4492 19.5996V21.8496H20.1992V19.5996H22.4492Z" />
</svg>
