<svg width="30" height="30" viewBox="0 0 30 30" fill="none" xmlns="http://www.w3.org/2000/svg">
<path d="M26 15.5C26 21.2983 21.3943 26 15.7143 26C12.9829 26 10.3657 24.9033 8.4 22.9667L10.1143 21.2167C11.5657 22.7917 13.5886 23.6667 15.7143 23.6667C22.8457 23.6667 26.4114 14.87 21.3714 9.725C16.3314 4.58 7.71428 8.23167 7.71428 15.5H11.1429L6.57143 20.1667H6.45714L2 15.5H5.42857C5.42857 9.70167 10.0343 5 15.7143 5C21.3943 5 26 9.70167 26 15.5Z" fill="#757575"/>
<path d="M13.0479 15.0098L13.5537 10.0469H18.6533V11.2158H14.627L14.3262 13.9297C14.8138 13.6426 15.3675 13.499 15.9873 13.499C16.8942 13.499 17.6143 13.7998 18.1475 14.4014C18.6807 14.9984 18.9473 15.8073 18.9473 16.8281C18.9473 17.8535 18.6693 18.6624 18.1133 19.2549C17.5618 19.8428 16.7894 20.1367 15.7959 20.1367C14.9163 20.1367 14.1986 19.8929 13.6426 19.4053C13.0866 18.9176 12.7699 18.2432 12.6924 17.3818H13.8887C13.9661 17.9515 14.1689 18.3822 14.4971 18.6738C14.8252 18.9609 15.2581 19.1045 15.7959 19.1045C16.3838 19.1045 16.8441 18.904 17.1768 18.5029C17.514 18.1019 17.6826 17.5482 17.6826 16.8418C17.6826 16.1764 17.5003 15.6432 17.1357 15.2422C16.7757 14.8366 16.2949 14.6338 15.6934 14.6338C15.1419 14.6338 14.709 14.7546 14.3945 14.9961L14.0596 15.2695L13.0479 15.0098Z" fill="#757575"/>
</svg>
