<svg width="30" height="30" viewBox="0 0 30 30" fill="none" xmlns="http://www.w3.org/2000/svg">
<path d="M4 15.5C4 21.2983 8.60571 26 14.2857 26C17.0171 26 19.6343 24.9033 21.6 22.9667L19.8857 21.2167C18.4343 22.7917 16.4114 23.6667 14.2857 23.6667C7.15429 23.6667 3.58857 14.87 8.62857 9.725C13.6686 4.58 22.2857 8.23167 22.2857 15.5H18.8571L23.4286 20.1667H23.5429L28 15.5H24.5714C24.5714 9.70167 19.9657 5 14.2857 5C8.60571 5 4 9.70167 4 15.5Z" fill="#757575"/>
<path d="M11.4082 15.0098L11.9141 10.0469H17.0137V11.2158H12.9873L12.6865 13.9297C13.1742 13.6426 13.7279 13.499 14.3477 13.499C15.2546 13.499 15.9746 13.7998 16.5078 14.4014C17.041 14.9984 17.3076 15.8073 17.3076 16.8281C17.3076 17.8535 17.0296 18.6624 16.4736 19.2549C15.9222 19.8428 15.1497 20.1367 14.1562 20.1367C13.2767 20.1367 12.5589 19.8929 12.0029 19.4053C11.4469 18.9176 11.1302 18.2432 11.0527 17.3818H12.249C12.3265 17.9515 12.5293 18.3822 12.8574 18.6738C13.1855 18.9609 13.6185 19.1045 14.1562 19.1045C14.7441 19.1045 15.2044 18.904 15.5371 18.5029C15.8743 18.1019 16.043 17.5482 16.043 16.8418C16.043 16.1764 15.8607 15.6432 15.4961 15.2422C15.1361 14.8366 14.6553 14.6338 14.0537 14.6338C13.5023 14.6338 13.0693 14.7546 12.7549 14.9961L12.4199 15.2695L11.4082 15.0098Z" fill="#757575"/>
</svg>
