<svg width="30" height="30" viewBox="0 0 30 30" fill="none" xmlns="http://www.w3.org/2000/svg">
<path d="M17.502 15.4994C17.502 17.1563 16.1588 18.4994 14.502 18.4994C12.8451 18.4994 11.502 17.1563 11.502 15.4994C11.502 13.8426 12.8451 12.4994 14.502 12.4994C16.1588 12.4994 17.502 13.8426 17.502 15.4994Z" fill="#757575"/>
<path d="M21.8675 23C21.5549 22.8839 21.3316 22.6244 21.2795 22.317C21.2423 22.1395 21.2795 22.0166 21.5773 21.5248C22.6938 19.6809 23.2669 17.5979 23.2371 15.4875C23.2669 13.4387 22.7235 11.4376 21.6517 9.64148C21.4954 9.34098 21.354 9.05415 21.2349 8.74682C21.2795 8.4873 21.4209 8.24826 21.6517 8.10484C21.9866 7.94094 22.396 7.97508 22.7012 8.16631C22.9096 8.41217 23.0883 8.65803 23.2371 8.94487C24.041 10.3654 24.5844 11.8679 24.8523 13.4387C25.0235 14.6748 25.0459 15.9315 24.9193 17.1744C24.6886 18.7725 24.175 20.316 23.386 21.757C22.9096 22.6312 22.6417 23 22.3588 23C22.2993 23 22.2323 23 22.1727 23C22.0685 23 21.9718 23 21.8675 23ZM18.6222 21.4907C18.198 21.3814 17.93 20.9853 18.0193 20.5892C18.0193 20.5072 18.2501 20.1316 18.4585 19.7492C19.3368 18.1989 19.7164 16.4505 19.5452 14.709C19.441 13.4592 19.0465 12.2435 18.3989 11.144C17.93 10.2835 17.9002 10.1469 18.1756 9.77807C18.5031 9.44343 19.0465 9.39562 19.4484 9.68246C19.9844 10.4064 20.4086 11.1986 20.7213 12.0318C21.674 14.6202 21.5251 17.4408 20.3044 19.9267C19.6792 21.2175 19.24 21.6341 18.6222 21.4565V21.4907Z" fill="#757575"/>
<path d="M7.13245 23C7.44508 22.8839 7.66838 22.6244 7.72048 22.317C7.7577 22.1395 7.72048 22.0166 7.42275 21.5248C6.30624 19.6809 5.7331 17.5979 5.76287 15.4875C5.7331 13.4387 6.27647 11.4376 7.34831 9.64148C7.50462 9.34098 7.64605 9.05415 7.76514 8.74682C7.72048 8.4873 7.57906 8.24826 7.34831 8.10484C7.01336 7.94094 6.60397 7.97508 6.2988 8.16631C6.09038 8.41217 5.91174 8.65803 5.76287 8.94487C4.95899 10.3654 4.41562 11.8679 4.14766 13.4387C3.97646 14.6748 3.95413 15.9315 4.08067 17.1744C4.31141 18.7725 4.82501 20.316 5.614 21.757C6.09038 22.6312 6.35834 23 6.64119 23C6.70074 23 6.76773 23 6.82727 23C6.93148 23 7.02825 23 7.13245 23ZM10.3778 21.4907C10.802 21.3814 11.07 20.9853 10.9807 20.5892C10.9807 20.5072 10.7499 20.1316 10.5415 19.7492C9.66321 18.1989 9.28359 16.4505 9.45479 14.709C9.559 13.4592 9.9535 12.2435 10.6011 11.144C11.07 10.2835 11.0998 10.1469 10.8244 9.77807C10.4969 9.44343 9.9535 9.39562 9.55155 9.68246C9.01563 10.4064 8.59136 11.1986 8.27874 12.0318C7.32598 14.6202 7.47485 17.4408 8.69557 19.9267C9.32081 21.2175 9.75997 21.6341 10.3778 21.4565V21.4907Z" fill="#757575"/>
</svg>
