<svg width="30" height="14" viewBox="0 0 30 14" fill="none" xmlns="http://www.w3.org/2000/svg">
<path d="M2.56934 10.9995H7.85693V13H0.0791016V0.914062H2.56934V10.9995ZM11.667 13H9.25977V4.01855H11.667V13ZM9.11865 1.69434C9.11865 1.33464 9.23763 1.03857 9.47559 0.806152C9.71908 0.57373 10.0483 0.45752 10.4634 0.45752C10.8729 0.45752 11.1994 0.57373 11.4429 0.806152C11.6864 1.03857 11.8081 1.33464 11.8081 1.69434C11.8081 2.05957 11.6836 2.3584 11.4346 2.59082C11.1911 2.82324 10.8674 2.93945 10.4634 2.93945C10.0594 2.93945 9.73291 2.82324 9.48389 2.59082C9.2404 2.3584 9.11865 2.05957 9.11865 1.69434ZM17.0127 10.0698L18.6812 4.01855H21.188L18.1582 13H15.8672L12.8374 4.01855H15.3442L17.0127 10.0698ZM26.2681 13.166C24.951 13.166 23.8774 12.762 23.0474 11.9541C22.2228 11.1462 21.8105 10.0698 21.8105 8.7251V8.49268C21.8105 7.59066 21.9849 6.78548 22.3335 6.07715C22.6821 5.36328 23.1746 4.81543 23.811 4.43359C24.453 4.04622 25.1834 3.85254 26.0024 3.85254C27.231 3.85254 28.1966 4.23991 28.8994 5.01465C29.6077 5.78939 29.9619 6.88786 29.9619 8.31006V9.28955H24.2427C24.3201 9.87614 24.5526 10.3465 24.9399 10.7007C25.3328 11.0549 25.8281 11.2319 26.4258 11.2319C27.3499 11.2319 28.0721 10.8971 28.5923 10.2275L29.771 11.5474C29.4113 12.0565 28.9243 12.4549 28.3101 12.7427C27.6958 13.0249 27.0151 13.166 26.2681 13.166ZM25.9941 5.79492C25.5182 5.79492 25.1309 5.9554 24.832 6.27637C24.5387 6.59733 24.3506 7.05664 24.2676 7.6543H27.6045V7.46338C27.5934 6.93213 27.4495 6.52262 27.1729 6.23486C26.8962 5.94157 26.5033 5.79492 25.9941 5.79492Z"/>
</svg>
