<svg width="23" height="20" viewBox="0 0 23 20" fill="none" xmlns="http://www.w3.org/2000/svg">
<path fill-rule="evenodd" clip-rule="evenodd" d="M11.1116 6.66663C8.66045 6.66663 6.66711 8.65996 6.66711 11.1111C6.66711 13.5622 8.66045 15.5555 11.1116 15.5555C13.5627 15.5555 15.556 13.5622 15.556 11.1111C15.556 8.65996 13.5627 6.66663 11.1116 6.66663Z" fill="white"/>
<path fill-rule="evenodd" clip-rule="evenodd" d="M11.1109 17.7778C7.43421 17.7778 4.44421 14.7878 4.44421 11.1111C4.44421 7.43558 7.43421 4.44447 11.1109 4.44447C14.7875 4.44447 17.7775 7.43558 17.7775 11.1111C17.7775 14.7878 14.7875 17.7778 11.1109 17.7778ZM20 3.33333H17.8556C17.1133 3.33333 16.4189 2.96222 16.0067 2.34444L15.1044 0.988889C14.6922 0.371111 13.9978 0 13.2556 0H8.96667C8.22444 0 7.53 0.371111 7.11778 0.988889L6.21556 2.34444C5.80333 2.96222 5.10889 3.33333 4.36667 3.33333H2.22222C0.994444 3.33333 0 4.32889 0 5.55556V17.7778C0 19.0044 0.994444 20 2.22222 20H20C21.2267 20 22.2222 19.0044 22.2222 17.7778V5.55556C22.2222 4.32889 21.2267 3.33333 20 3.33333Z" fill="white"/>
</svg>
