<svg width="24" height="20" viewBox="0 0 24 20" fill="none" xmlns="http://www.w3.org/2000/svg">
<path fill-rule="evenodd" clip-rule="evenodd" d="M20 10.5882H17.6471V12.9412H20V15.2941H17.6471V17.6471H15.2941V15.2941H17.6471V12.9412H15.2941V10.5882H17.6471V8.23529H15.2941V5.88235H17.6471V8.23529H20V10.5882ZM21.1765 3.52941H11.7647L10.0624 1.3C9.66353 0.503529 8.84941 0 7.95765 0H1.17647C0.527059 0 0 0.525882 0 1.17647V17.6471C0 18.9459 1.05412 20 2.35294 20H21.1765C22.4753 20 23.5294 18.9459 23.5294 17.6471V5.88235C23.5294 4.58353 22.4753 3.52941 21.1765 3.52941Z" fill="white"/>
</svg>
