<svg width="30" height="30" viewBox="0 0 30 30" fill="none" xmlns="http://www.w3.org/2000/svg">
<path d="M25.7125 13.325C25.5375 12.825 25.0625 12.5 24.5 12.5H15.5125C14.9375 12.5 14.475 12.825 14.2875 13.325L12.5 18.4625L12.5125 25.35C12.5125 25.825 12.9 26.25 13.375 26.25H14.15C14.625 26.25 15 25.775 15 25.3V23.75H25V25.3C25 25.775 25.3875 26.25 25.8625 26.25H26.625C27.1 26.25 27.4875 25.825 27.4875 25.35L27.5 23.6375V18.4625L25.7125 13.325ZM15.5125 13.75H24.5L25.7875 17.5H14.225L15.5125 13.75ZM15 21.25C14.3125 21.25 13.75 20.6875 13.75 20C13.75 19.3125 14.3125 18.75 15 18.75C15.6875 18.75 16.25 19.3125 16.25 20C16.25 20.6875 15.6875 21.25 15 21.25ZM25 21.25C24.3125 21.25 23.75 20.6875 23.75 20C23.75 19.3125 24.3125 18.75 25 18.75C25.6875 18.75 26.25 19.3125 26.25 20C26.25 20.6875 25.6875 21.25 25 21.25Z" fill="white"/>
<path d="M17.5 11.25H18.75V3.75H8.75V10H2.5V26.25H3.75V11.25H10V5H17.5V11.25Z" fill="white"/>
<path d="M8.75 13.75H6.25V16.25H8.75V13.75Z" fill="white"/>
<path d="M15 6.25H12.5V8.75H15V6.25Z" fill="white"/>
<path d="M8.75 18.75H6.25V21.25H8.75V18.75Z" fill="white"/>
<path d="M8.75 23.75H6.25V26.25H8.75V23.75Z" fill="white"/>
</svg>
