<svg width="96" height="13" viewBox="0 0 96 13" xmlns="http://www.w3.org/2000/svg">
<path fill="#fff" d="M2.35938 10.1172H7.33594V12H0.015625V0.625H2.35938V10.1172ZM10.9219 12H8.65625V3.54688H10.9219V12ZM8.52344 1.35938C8.52344 1.02083 8.63542 0.742188 8.85938 0.523438C9.08854 0.304688 9.39844 0.195312 9.78906 0.195312C10.1745 0.195312 10.4818 0.304688 10.7109 0.523438C10.9401 0.742188 11.0547 1.02083 11.0547 1.35938C11.0547 1.70312 10.9375 1.98438 10.7031 2.20312C10.474 2.42188 10.1693 2.53125 9.78906 2.53125C9.40885 2.53125 9.10156 2.42188 8.86719 2.20312C8.63802 1.98438 8.52344 1.70312 8.52344 1.35938ZM15.9531 9.24219L17.5234 3.54688H19.8828L17.0312 12H14.875L12.0234 3.54688H14.3828L15.9531 9.24219ZM24.6641 12.1562C23.4245 12.1562 22.4141 11.776 21.6328 11.0156C20.8568 10.2552 20.4688 9.24219 20.4688 7.97656V7.75781C20.4688 6.90885 20.6328 6.15104 20.9609 5.48438C21.2891 4.8125 21.7526 4.29688 22.3516 3.9375C22.9557 3.57292 23.6432 3.39062 24.4141 3.39062C25.5703 3.39062 26.4792 3.75521 27.1406 4.48438C27.8073 5.21354 28.1406 6.2474 28.1406 7.58594V8.50781H22.7578C22.8307 9.0599 23.0495 9.5026 23.4141 9.83594C23.7839 10.1693 24.25 10.3359 24.8125 10.3359C25.6823 10.3359 26.362 10.0208 26.8516 9.39062L27.9609 10.6328C27.6224 11.112 27.1641 11.487 26.5859 11.7578C26.0078 12.0234 25.3672 12.1562 24.6641 12.1562ZM24.4062 5.21875C23.9583 5.21875 23.5938 5.36979 23.3125 5.67188C23.0365 5.97396 22.8594 6.40625 22.7812 6.96875H25.9219V6.78906C25.9115 6.28906 25.776 5.90365 25.5156 5.63281C25.2552 5.35677 24.8854 5.21875 24.4062 5.21875ZM33.6016 6.01562C33.6016 5.47396 33.7734 5.03906 34.1172 4.71094C34.4609 4.38281 34.9036 4.21875 35.4453 4.21875C36.0078 4.21875 36.4557 4.38021 36.7891 4.70312C37.1276 5.02604 37.3021 5.45052 37.3125 5.97656V6.3125C37.3125 6.84896 37.1406 7.28125 36.7969 7.60938C36.4583 7.93229 36.013 8.09375 35.4609 8.09375C34.9141 8.09375 34.4661 7.93229 34.1172 7.60938C33.7734 7.28646 33.6016 6.84635 33.6016 6.28906V6.01562ZM52.2266 8.21094C52.138 9.4349 51.6849 10.3984 50.8672 11.1016C50.0547 11.8047 48.9818 12.1562 47.6484 12.1562C46.1901 12.1562 45.0417 11.6667 44.2031 10.6875C43.3698 9.70312 42.9531 8.35417 42.9531 6.64062V5.94531C42.9531 4.85156 43.1458 3.88802 43.5312 3.05469C43.9167 2.22135 44.4661 1.58333 45.1797 1.14062C45.8984 0.692708 46.7318 0.46875 47.6797 0.46875C48.9922 0.46875 50.0495 0.820312 50.8516 1.52344C51.6536 2.22656 52.1172 3.21354 52.2422 4.48438H49.8984C49.8411 3.75 49.6354 3.21875 49.2812 2.89062C48.9323 2.55729 48.3984 2.39062 47.6797 2.39062C46.8984 2.39062 46.3125 2.67188 45.9219 3.23438C45.5365 3.79167 45.3385 4.65885 45.3281 5.83594V6.69531C45.3281 7.92448 45.513 8.82292 45.8828 9.39062C46.2578 9.95833 46.8464 10.2422 47.6484 10.2422C48.3724 10.2422 48.9115 10.0781 49.2656 9.75C49.625 9.41667 49.8307 8.90365 49.8828 8.21094H52.2266ZM57.5078 12.1562C56.2682 12.1562 55.2578 11.776 54.4766 11.0156C53.7005 10.2552 53.3125 9.24219 53.3125 7.97656V7.75781C53.3125 6.90885 53.4766 6.15104 53.8047 5.48438C54.1328 4.8125 54.5964 4.29688 55.1953 3.9375C55.7995 3.57292 56.487 3.39062 57.2578 3.39062C58.4141 3.39062 59.3229 3.75521 59.9844 4.48438C60.651 5.21354 60.9844 6.2474 60.9844 7.58594V8.50781H55.6016C55.6745 9.0599 55.8932 9.5026 56.2578 9.83594C56.6276 10.1693 57.0938 10.3359 57.6562 10.3359C58.526 10.3359 59.2057 10.0208 59.6953 9.39062L60.8047 10.6328C60.4661 11.112 60.0078 11.487 59.4297 11.7578C58.8516 12.0234 58.2109 12.1562 57.5078 12.1562ZM57.25 5.21875C56.8021 5.21875 56.4375 5.36979 56.1562 5.67188C55.8802 5.97396 55.7031 6.40625 55.625 6.96875H58.7656V6.78906C58.7552 6.28906 58.6198 5.90365 58.3594 5.63281C58.099 5.35677 57.7292 5.21875 57.25 5.21875ZM67.3672 3.54688H69.625V12H67.3672V6.78125L64.5391 12H62.2734V3.54688H64.5391V8.75781L67.3672 3.54688ZM68.6953 0.117188C68.6953 0.809896 68.4453 1.36979 67.9453 1.79688C67.4505 2.22396 66.7995 2.4375 65.9922 2.4375C65.1849 2.4375 64.5312 2.22656 64.0312 1.80469C63.5365 1.38281 63.2891 0.820312 63.2891 0.117188H64.8906C64.8906 0.445312 64.987 0.700521 65.1797 0.882812C65.3776 1.0599 65.6484 1.14844 65.9922 1.14844C66.3307 1.14844 66.5964 1.0599 66.7891 0.882812C66.9818 0.700521 67.0781 0.445312 67.0781 0.117188H68.6953ZM78.4766 12H76.2188V9.34375C75.7969 9.42188 75.4036 9.46094 75.0391 9.46094C73.763 9.46094 72.8021 9.1901 72.1562 8.64844C71.5104 8.10677 71.1823 7.3151 71.1719 6.27344V3.54688H73.4297V6.27344C73.4349 6.76302 73.5547 7.11458 73.7891 7.32812C74.0234 7.53646 74.4401 7.64062 75.0391 7.64062C75.4141 7.64062 75.8073 7.59635 76.2188 7.50781V3.54688H78.4766V12ZM85.1094 12C85.0052 11.7969 84.9297 11.5443 84.8828 11.2422C84.3359 11.8516 83.625 12.1562 82.75 12.1562C81.9219 12.1562 81.2344 11.9167 80.6875 11.4375C80.1458 10.9583 79.875 10.3542 79.875 9.625C79.875 8.72917 80.2057 8.04167 80.8672 7.5625C81.5339 7.08333 82.4948 6.84115 83.75 6.83594H84.7891V6.35156C84.7891 5.96094 84.6875 5.64844 84.4844 5.41406C84.2865 5.17969 83.9714 5.0625 83.5391 5.0625C83.1589 5.0625 82.8594 5.15365 82.6406 5.33594C82.4271 5.51823 82.3203 5.76823 82.3203 6.08594H80.0625C80.0625 5.59635 80.2135 5.14323 80.5156 4.72656C80.8177 4.3099 81.2448 3.98438 81.7969 3.75C82.349 3.51042 82.9688 3.39062 83.6562 3.39062C84.6979 3.39062 85.5234 3.65365 86.1328 4.17969C86.7474 4.70052 87.0547 5.4349 87.0547 6.38281V10.0469C87.0599 10.849 87.1719 11.4557 87.3906 11.8672V12H85.1094ZM83.2422 10.4297C83.5755 10.4297 83.8828 10.3568 84.1641 10.2109C84.4453 10.0599 84.6536 9.85938 84.7891 9.60938V8.15625H83.9453C82.8151 8.15625 82.2135 8.54688 82.1406 9.32812L82.1328 9.46094C82.1328 9.74219 82.2318 9.97396 82.4297 10.1562C82.6276 10.3385 82.8984 10.4297 83.2422 10.4297ZM92.3047 10.3359C92.7214 10.3359 93.0599 10.2214 93.3203 9.99219C93.5807 9.76302 93.7161 9.45833 93.7266 9.07812H95.8438C95.8385 9.65104 95.6823 10.1771 95.375 10.6562C95.0677 11.1302 94.6458 11.5 94.1094 11.7656C93.5781 12.026 92.9896 12.1562 92.3438 12.1562C91.1354 12.1562 90.1823 11.7734 89.4844 11.0078C88.7865 10.237 88.4375 9.17448 88.4375 7.82031V7.67188C88.4375 6.36979 88.7839 5.33073 89.4766 4.55469C90.1693 3.77865 91.1198 3.39062 92.3281 3.39062C93.3854 3.39062 94.2318 3.69271 94.8672 4.29688C95.5078 4.89583 95.8333 5.69531 95.8438 6.69531H93.7266C93.7161 6.25781 93.5807 5.90365 93.3203 5.63281C93.0599 5.35677 92.7161 5.21875 92.2891 5.21875C91.763 5.21875 91.3646 5.41146 91.0938 5.79688C90.8281 6.17708 90.6953 6.79688 90.6953 7.65625V7.89062C90.6953 8.76042 90.8281 9.38542 91.0938 9.76562C91.3594 10.1458 91.763 10.3359 92.3047 10.3359Z" fill="#757575"/>
</svg>
