<svg width="30" height="30" viewBox="0 0 30 30" fill="none" xmlns="http://www.w3.org/2000/svg">
<g opacity="1">
<g clip-path="url(#clip0)">
<path d="M22.1742 25.2359H29.0002V26.2677H22.1742C21.0569 26.2677 20.1584 25.3739 20.1584 24.2359V21.498V20.8453L19.5608 20.5826C19.0368 20.3522 18.5886 19.9371 18.2771 19.3927L17.7728 18.5113L16.8993 19.029L14.1883 20.6359C14.1878 20.6361 14.1874 20.6364 14.1869 20.6367C13.2269 21.1999 12.0118 20.8794 11.4536 19.8696L11.4536 19.8696L11.4492 19.8617L9.18735 15.8554L9.18736 15.8554L9.18518 15.8516C8.62122 14.8629 8.95758 13.5504 9.92923 12.9678C9.92975 12.9675 9.93028 12.9672 9.9308 12.9669L22.9572 5.24279C23.3548 5.02502 23.7555 4.94178 24.1067 4.96864C24.7749 5.03519 25.3812 5.39494 25.717 6.00284L25.7169 6.00286L25.7215 6.01094L27.9827 10.016C27.9827 10.0161 27.9828 10.0163 27.9829 10.0164C28.5636 11.0487 28.2178 12.3176 27.2289 12.9034C27.2288 12.9034 27.2288 12.9034 27.2287 12.9034L23.4139 15.1617L22.571 15.6607L23.0524 16.5137C23.3002 16.9528 23.436 17.4488 23.436 17.9867C23.436 19.0976 22.7734 20.1308 21.7631 20.5864L21.1742 20.852V21.498V24.2359V25.2359H22.1742Z" stroke="white" stroke-width="2"/>
<path d="M8.05312 22.0214L6.716 24.1043L6.27707 23.324L6.27199 23.3149L6.26673 23.306L3.90061 19.2963L3.41363 18.4356L5.7076 17.8589L8.05312 22.0214Z" stroke="white" stroke-width="2"/>
</g>
</g>
<defs>
<clipPath id="clip0">
<rect width="30" height="30" fill="white"/>
</clipPath>
</defs>
</svg>
