<svg width="19" height="13" viewBox="0 0 19 13" fill="none" xmlns="http://www.w3.org/2000/svg">
<path d="M4.59668 6.3291L6.19629 3.49023H8.91211L6.20508 8.14844L9.02637 13H6.30176L4.60547 10.0117L2.91797 13H0.18457L3.00586 8.14844L0.307617 3.49023H3.03223L4.59668 6.3291ZM18.7998 13H10.0283V11.2598L14.168 6.84766C14.7363 6.22656 15.1553 5.68457 15.4248 5.22168C15.7002 4.75879 15.8379 4.31934 15.8379 3.90332C15.8379 3.33496 15.6943 2.88965 15.4072 2.56738C15.1201 2.23926 14.71 2.0752 14.1768 2.0752C13.6025 2.0752 13.1484 2.27441 12.8145 2.67285C12.4863 3.06543 12.3223 3.58398 12.3223 4.22852H9.77344C9.77344 3.44922 9.95801 2.7373 10.3271 2.09277C10.7021 1.44824 11.2295 0.944336 11.9092 0.581055C12.5889 0.211914 13.3594 0.0273438 14.2207 0.0273438C15.5391 0.0273438 16.5615 0.34375 17.2881 0.976562C18.0205 1.60938 18.3867 2.50293 18.3867 3.65723C18.3867 4.29004 18.2227 4.93457 17.8945 5.59082C17.5664 6.24707 17.0039 7.01172 16.207 7.88477L13.2979 10.9521H18.7998V13Z"/>
</svg>
